# xmcd
#
# Track frame offsets:
# 150
# 33627
# 51562
# 73885
# 92485
# 108547
# 129522
# 157546
# 181833
# 201046
# 215346
# 245823
#
# Disc length: 3794 seconds
#
#
# Revision: 0
# Processed by: cddbd v1.5.1PL2 Copyright (c) Steve Scherf et al.
# Submitted via: FreeRIP 2.944 
#
DISCID=aa0ed00c
DTITLE=green on red - umbertide, 15 giugno 1991
DYEAR=1991
DGENRE=Country
TTITLE0=01
TTITLE1=02
TTITLE2=03
TTITLE3=04
TTITLE4=05
TTITLE5=06
TTITLE6=07
TTITLE7=08
TTITLE8=09
TTITLE9=10
TTITLE10=11
TTITLE11=12
EXTD=
EXTT0=
EXTT1=
EXTT2=
EXTT3=
EXTT4=
EXTT5=
EXTT6=
EXTT7=
EXTT8=
EXTT9=
EXTT10=
EXTT11=
PLAYORDER=
